HIERARCHY
ROOT Hips
{
	OFFSET 0.000000 0.000000 0.000000
	CHANNELS 6 Xposition Yposition Zposition Zrotation Yrotation Xrotation 
	JOINT LHipJoint
	{
		OFFSET 0.000000 0.000000 0.000000
		CHANNELS 3 Zrotation Yrotation Xrotation
		JOINT LeftUpLeg
		{
			OFFSET 1.363060 -1.794630 0.839290
			CHANNELS 3 Zrotation Yrotation Xrotation
			JOINT LeftLeg
			{
				OFFSET 2.448110 -6.726130 0.000000
				CHANNELS 3 Zrotation Yrotation Xrotation
				JOINT LeftFoot
				{
					OFFSET 2.562200 -7.039590 0.000000
					CHANNELS 3 Zrotation Yrotation Xrotation
					JOINT LeftToeBase
					{
						OFFSET 0.157640 -0.433110 2.322550
						CHANNELS 3 Zrotation Yrotation Xrotation
						End Site
						{
							OFFSET 0.000000 0.000000 0.000000
						}
					}
				}
			}
		}
	}
	JOINT RHipJoint
	{
		OFFSET 0.000000 0.000000 0.000000
		CHANNELS 3 Zrotation Yrotation Xrotation
		JOINT RightUpLeg
		{
			OFFSET -1.305520 -1.794630 0.839290
			CHANNELS 3 Zrotation Yrotation Xrotation
			JOINT RightLeg
			{
				OFFSET -2.542530 -6.985550 0.000000
				CHANNELS 3 Zrotation Yrotation Xrotation
				JOINT RightFoot
				{
					OFFSET -2.568260 -7.056230 0.000000
					CHANNELS 3 Zrotation Yrotation Xrotation
					JOINT RightToeBase
					{
						OFFSET -0.164730 -0.452590 2.363150
						CHANNELS 3 Zrotation Yrotation Xrotation
						End Site
						{
							OFFSET 0.000000 0.000000 0.000000
						}
					}
				}
			}
		}
	}
	JOINT LowerBack
	{
		OFFSET 0.000000 0.000000 0.000000
		CHANNELS 3 Zrotation Yrotation Xrotation
		JOINT Spine
		{
			OFFSET 0.028270 2.035590 -0.193380
			CHANNELS 3 Zrotation Yrotation Xrotation
			JOINT Spine1
			{
				OFFSET 0.056720 2.048850 -0.042750
				CHANNELS 3 Zrotation Yrotation Xrotation
				JOINT Neck
				{
					OFFSET 0.000000 0.000000 0.000000
					CHANNELS 3 Zrotation Yrotation Xrotation
					JOINT Neck1
					{
						OFFSET -0.054170 1.746240 0.172020
						CHANNELS 3 Zrotation Yrotation Xrotation
						JOINT Head
						{
							OFFSET 0.104070 1.761360 -0.123970
							CHANNELS 3 Zrotation Yrotation Xrotation
							End Site
							{
								OFFSET 0.000000 0.000000 0.000000
							}
						}
					}
				}
				JOINT LeftShoulder
				{
					OFFSET 0.000000 0.000000 0.000000
					CHANNELS 3 Zrotation Yrotation Xrotation
					JOINT LeftArm
					{
						OFFSET 3.362410 1.200890 -0.311210
						CHANNELS 3 Zrotation Yrotation Xrotation
						JOINT LeftForeArm
						{
							OFFSET 4.983000 -0.000000 -0.000000
							CHANNELS 3 Zrotation Yrotation Xrotation
							JOINT LeftHand
							{
								OFFSET 3.483560 -0.000000 -0.000000
								CHANNELS 3 Zrotation Yrotation Xrotation
								JOINT LeftFingerBase
								{
									OFFSET 0.000000 0.000000 0.000000
									CHANNELS 3 Zrotation Yrotation Xrotation
									JOINT LeftHandIndex1
									{
										OFFSET 0.715260 -0.000000 -0.000000
										CHANNELS 3 Zrotation Yrotation Xrotation
										End Site
										{
											OFFSET 0.000000 0.000000 0.000000
										}
									}
								}
								JOINT LThumb
								{
									OFFSET 0.000000 0.000000 0.000000
									CHANNELS 3 Zrotation Yrotation Xrotation
									End Site
									{
										OFFSET 0.000000 0.000000 0.000000
									}
								}
							}
						}
					}
				}
				JOINT RightShoulder
				{
					OFFSET 0.000000 0.000000 0.000000
					CHANNELS 3 Zrotation Yrotation Xrotation
					JOINT RightArm
					{
						OFFSET -3.136600 1.374050 -0.404650
						CHANNELS 3 Zrotation Yrotation Xrotation
						JOINT RightForeArm
						{
							OFFSET -5.241900 -0.000000 -0.000000
							CHANNELS 3 Zrotation Yrotation Xrotation
							JOINT RightHand
							{
								OFFSET -3.444170 -0.000000 -0.000000
								CHANNELS 3 Zrotation Yrotation Xrotation
								JOINT RightFingerBase
								{
									OFFSET 0.000000 0.000000 0.000000
									CHANNELS 3 Zrotation Yrotation Xrotation
									JOINT RightHandIndex1
									{
										OFFSET -0.622530 -0.000000 -0.000000
										CHANNELS 3 Zrotation Yrotation Xrotation
										End Site
										{
											OFFSET 0.000000 0.000000 0.000000
										}
									}
								}
								JOINT RThumb
								{
									OFFSET 0.000000 0.000000 0.000000
									CHANNELS 3 Zrotation Yrotation Xrotation
									End Site
									{
										OFFSET 0.000000 0.000000 0.000000
									}
								}
							}
						}
					}
				}
			}
		}
	}
}
MOTION
Frames: 6
Frame Time: 0.008333
9.893279 17.853936 49.909047 -177.981933 3.946847 179.784579 -1.124259 3.654606 1.985848 -17.796522 -23.860241 -0.876753 -2.780171 8.213336 23.395924 -7.339254 21.541065 -13.103602 2.858100 -10.461700 -30.485200 -2.929142 -3.258043 0.775682 23.738928 18.934683 -2.460812 1.991192 -8.303523 25.365072 5.450800 -19.826594 -14.626579 -0.000400 -0.121100 0.332800 1.400256 0.533010 5.236578 1.890120 0.986201 2.270780 -3.394415 0.273243 -11.751900 -8.302105 -4.663230 -16.237764 15.372609 -10.491373 31.435822 3.234500 -4.195800 11.826400 -2.048174 -9.748402 1.378552 -89.529652 8.490361 34.217202 24.174483 -24.142546 -6.817790 1.770978 0.937002 13.750787 4.035841 -34.735547 -1.518000 -7.125000 0.000000 0.000000 -16.505700 -4.886300 18.612400 0.550468 11.801012 2.811440 87.913209 -7.606623 45.917694 -20.392315 23.356793 -5.767175 1.238653 0.395356 14.697046 -6.571786 -52.325352 6.122000 7.125000 0.000000 0.000000 68.304400 -74.055000 -52.213800 
9.886676 17.851224 49.911170 -178.076825 4.242901 179.715610 -1.125219 3.655023 2.015003 -17.934850 -23.647502 -0.837729 -2.799291 8.184455 23.323754 -7.363968 21.619235 -13.139681 2.868600 -10.479200 -30.543000 -2.933683 -3.254099 0.770447 23.589373 18.918186 -2.550163 1.950963 -8.358782 25.524271 5.366328 -19.550468 -14.484218 -0.000100 -0.051200 0.140600 1.294714 0.641552 5.320321 1.880662 1.122131 2.329221 -3.371552 0.347896 -11.797278 -8.355696 -4.647062 -15.953182 15.360977 -10.472966 31.296391 3.234200 -4.209500 11.718300 -2.044379 -9.750640 1.372836 -89.560749 8.491196 34.229272 24.147886 -24.111789 -6.804289 1.764995 0.943668 13.780655 4.241952 -34.748581 -1.645400 -7.125000 0.000000 0.000000 -16.394600 -4.929300 18.487800 0.553250 11.790995 2.803407 87.906479 -7.599426 45.839202 -20.395590 23.360287 -5.762578 1.239349 0.394107 14.665046 -6.597549 -52.189319 6.132600 7.125000 0.000000 0.000000 67.828100 -74.022200 -51.743200 
9.881605 17.851814 49.911641 -178.248354 4.505554 179.767174 -1.146414 3.645438 2.007117 -18.155266 -23.715260 -0.778302 -2.827690 8.160828 23.260509 -7.367297 21.690317 -13.404636 2.838800 -10.429300 -30.378600 -2.925755 -3.243099 0.766356 23.316642 18.979411 -2.713572 1.928661 -8.391452 25.589571 5.334482 -19.396558 -14.297586 -0.000000 0.012600 -0.034600 1.095393 0.723002 5.274775 1.848362 1.211895 2.330577 -3.278074 0.405325 -11.776237 -8.238143 -4.685219 -16.226493 15.141391 -10.501781 31.554973 3.146700 -4.221600 11.862600 -2.060629 -9.739229 1.368637 -89.574012 8.406481 34.313432 24.061060 -24.005993 -6.760797 1.760865 0.955401 13.560905 4.364288 -34.780537 -1.720400 -7.125000 0.000000 0.000000 -16.331400 -4.979400 18.423600 0.547918 11.811862 2.813672 87.852725 -7.603556 45.728939 -20.444169 23.419510 -5.783147 1.234832 0.398224 14.745426 -6.039282 -52.230300 5.684900 7.125000 0.000000 0.000000 68.308900 -73.832200 -51.966500 
9.879129 17.850281 49.910934 -178.337598 4.530889 179.707075 -1.141180 3.649305 2.018018 -18.281070 -23.639001 -0.725620 -2.833522 8.148911 23.232629 -7.359376 21.682056 -13.374870 2.926500 -10.575100 -30.859800 -2.923919 -3.250374 0.768456 23.225225 18.983687 -2.696858 1.908008 -8.413816 25.656694 5.384405 -19.507184 -14.203981 -0.001200 0.227000 -0.623800 0.909710 0.728113 5.354628 1.913236 1.203794 2.328926 -3.176280 0.416864 -11.834296 -8.293007 -4.634897 -16.142543 15.164121 -10.455462 31.595412 3.172700 -4.211000 11.856900 -2.070692 -9.729551 1.364464 -89.623187 8.399886 34.305678 23.931501 -23.862232 -6.707656 1.756306 0.977345 13.918914 4.959840 -35.082037 -2.101100 -7.125000 0.000000 0.000000 -16.026500 -5.371400 18.151800 0.545553 11.808865 2.821519 87.782074 -7.675708 45.648878 -20.486370 23.483944 -5.816081 1.223596 0.410964 14.888586 -4.924892 -52.636935 4.808200 7.125000 0.000000 0.000000 70.326500 -73.550800 -53.494700 
9.875356 17.852993 49.909165 -178.241798 4.559569 179.782053 -1.125995 3.633903 2.011089 -18.153643 -23.501726 -0.854874 -2.829598 8.143083 23.202352 -7.414605 21.770796 -13.195703 2.943000 -10.602200 -30.949700 -2.916449 -3.237087 0.754459 23.286481 18.970026 -2.785749 1.900654 -8.433948 25.679402 5.412768 -19.564811 -14.051717 -0.004600 0.436100 -1.198300 0.886197 0.733861 5.336556 2.110036 1.214438 2.227891 -3.153899 0.420995 -11.840988 -8.455992 -4.562480 -16.042930 15.276659 -10.408365 31.707443 3.249200 -4.202300 11.882900 -2.090574 -9.724160 1.363799 -89.729303 8.460366 34.175096 23.856188 -23.773149 -6.673790 1.741748 0.998365 14.482947 5.862542 -35.235974 -2.672900 -7.125000 0.000000 0.000000 -15.548700 -5.667100 17.641700 0.538979 11.806416 2.835677 87.677613 -7.735497 45.734277 -20.497970 23.506026 -5.835456 1.216496 0.419679 14.885251 -4.318335 -52.976411 4.333200 7.125000 0.000000 0.000000 71.788400 -73.426300 -54.705000 
9.869814 17.850870 49.906807 -178.189432 4.238081 179.604673 -1.111538 3.669075 2.034251 -18.167313 -23.547930 -0.708905 -2.814417 8.150930 23.237472 -7.374518 21.656302 -13.042576 2.913000 -10.552900 -30.786600 -2.924262 -3.264501 0.778067 23.406009 18.797315 -2.583478 1.901751 -8.414446 25.693879 5.397971 -19.575321 -14.258728 -0.000500 0.146400 -0.402300 0.997683 0.603426 5.467702 2.097165 1.052011 2.341128 -3.189785 0.334091 -11.906709 -8.487194 -4.505687 -16.132744 15.363706 -10.407884 31.939968 3.298700 -4.198700 11.993200 -2.085147 -9.715114 1.355187 -89.759787 8.455343 34.009742 23.821759 -23.730544 -6.646545 1.742515 0.993796 14.691904 5.978663 -35.054683 -2.733000 -7.125000 0.000000 0.000000 -15.476200 -5.508900 17.514500 0.541392 11.812652 2.831356 87.700035 -7.689546 45.738895 -20.457552 23.459866 -5.819999 1.217036 0.420137 14.930501 -4.289846 -53.024264 4.312800 7.125000 0.000000 0.000000 71.964000 -73.429100 -54.871800 
